# xmcd
#
# Track frame offsets: 
#        150
#        12841
#        27876
#        44558
#        59176
#        73213
#        87321
#        100516
#        114287
#        127225
#        143692
#        155988
#        169132
#        183756
#        199906
#        211364
#        225037
#
# Disc length: 3153 seconds
#
# Revision: 1
# Processed by: cddbd v1.5.2PL0 Copyright (c) Steve Scherf et al.
# Submitted via: ExactAudioCopyFreeDBPlugin 1.0
#
DISCID=ef0c4f11
DTITLE=Sam Taylor - Hi-Fi Saxophone
DYEAR=2000
DGENRE=Jazz
TTITLE0=Harlem Nocturne
TTITLE1=Moon River
TTITLE2=Love Story
TTITLE3=Smoke Gets In Your Eyes
TTITLE4=Raindrops Fall On My Head
TTITLE5=The Thyme Song Of The Film THE Godfather
TTITLE6=Attached In The Night Fog
TTITLE7=Star Dust
TTITLE8=Love Is A Many Splendored Thing
TTITLE9=Ebb Tide
TTITLE10=By the time I get to Phoenix
TTITLE11=The White Beloved
TTITLE12=East Of The Eden
TTITLE13=The Last Waltz
TTITLE14=The End Of The World
TTITLE15=La Reine De Saba
TTITLE16=Summer Time
EXTD=YEAR: 2000
EXTT0=
EXTT1=
EXTT2=
EXTT3=
EXTT4=
EXTT5=
EXTT6=
EXTT7=
EXTT8=
EXTT9=
EXTT10=
EXTT11=
EXTT12=
EXTT13=
EXTT14=
EXTT15=
EXTT16=
PLAYORDER=
